<?xml version="1.0" standalone="no"?>
<!DOCTYPE svg PUBLIC "-//W3C//DTD SVG 20010904//EN"
 "http://www.w3.org/TR/2001/REC-SVG-20010904/DTD/svg10.dtd">
<svg version="1.0" xmlns="http://www.w3.org/2000/svg"
 width="3900.000000pt" height="3600.000000pt" viewBox="0 0 3900.000000 3600.000000"
 preserveAspectRatio="xMidYMid meet">

<g transform="translate(0.000000,3600.000000) scale(0.100000,-0.100000)"
fill="#000000" stroke="none">
<path d="M3425 35019 c-289 -42 -544 -267 -735 -649 -339 -678 -545 -1869
-631 -3655 -17 -351 -23 -1572 -10 -1995 68 -2255 338 -4007 741 -4810 73
-145 164 -276 259 -371 93 -93 169 -142 283 -185 l73 -28 1685 -7 c3268 -14
6657 -32 7168 -38 l517 -6 3 -11312 2 -11313 6060 0 6060 0 0 11315 0 11315
5710 0 5710 0 0 5810 0 5810 -4712 0 c-3012 0 -4765 -4 -4858 -10 -706 -48
-1362 -215 -2010 -510 -452 -205 -931 -512 -1315 -842 -60 -52 -2322 -2121
-5025 -4597 l-4915 -4503 -3 5296 -2 5296 -4998 -1 c-2768 -1 -5024 -5 -5057
-10z"/>
</g>
</svg>
